<?xml version="1.0" encoding="UTF-8"?>
<svg width="140px" height="36px" viewBox="0 0 140 36" version="1.1" xmlns="http://www.w3.org/2000/svg" xmlns:xlink="http://www.w3.org/1999/xlink">
    <!-- Generator: Sketch 50.2 (55047) - http://www.bohemiancoding.com/sketch -->
    <title>top-logo</title>
    <desc>Created with Sketch.</desc>
    <defs>
        <path d="M40.4687139,12.0528404 C40.4687139,11.2367017 40.8342477,10.7842202 41.5365048,10.7842202 L42.6830746,10.7842202 C43.3848815,10.7842202 43.7499651,11.2367017 43.7499651,12.0528404 L43.7499651,24.9287086 C43.7499651,25.7756746 43.3848815,26.1978513 42.6830746,26.1978513 L41.5365048,26.1978513 C40.8342477,26.1978513 40.4687139,25.7756746 40.4687139,24.9287086 L40.4687139,12.0528404 Z M85.8463692,10.7842202 C89.7736709,10.7842202 92.968733,13.9881714 92.968733,18.4915547 C92.968733,23.0229609 89.7736709,26.1978513 85.8463692,26.1978513 C81.9181561,26.1978513 78.7499778,23.0229609 78.7499778,18.4915547 C78.7499778,13.9881714 81.9181561,10.7842202 85.8463692,10.7842202 Z M85.8463692,23.0805635 C87.9501344,23.0805635 89.6989433,21.2326091 89.6989433,18.4915547 C89.6989433,15.7785231 87.9501344,13.9020269 85.8463692,13.9020269 C83.742604,13.9020269 82.0197675,15.7785231 82.0197675,18.4915547 C82.0197675,21.2326091 83.742604,23.0805635 85.8463692,23.0805635 Z M132.877636,10.7842202 C136.805849,10.7842202 140,13.9881714 140,18.4915547 C140,23.0229609 136.805849,26.1978513 132.877636,26.1978513 C128.949423,26.1978513 125.781245,23.0229609 125.781245,18.4915547 C125.781245,13.9881714 128.949423,10.7842202 132.877636,10.7842202 Z M132.877636,23.0805635 C134.981401,23.0805635 136.73021,21.2326091 136.73021,18.4915547 C136.73021,15.7785231 134.981401,13.9020269 132.877636,13.9020269 C130.773871,13.9020269 129.051946,15.7785231 129.051946,18.4915547 C129.051946,21.2326091 130.773871,23.0805635 132.877636,23.0805635 Z M96.2499841,8.58134125 C96.2499841,7.8736219 96.6382439,7.48129922 97.3888475,7.48129922 L98.6092983,7.48129922 C99.359422,7.48129922 99.7472018,7.8736219 99.7472018,8.58134125 L99.7472018,21.6429262 C99.7472018,22.9511209 100.331271,23.1868766 100.85823,23.2402723 C101.357832,23.2914054 101.718736,23.5801042 101.718736,24.1819372 L101.718736,25.0720164 C101.718736,25.7516804 101.385668,26.1978513 100.554437,26.1978513 C98.6644897,26.1978513 96.2499841,25.7258876 96.2499841,21.9044746 L96.2499841,8.58134125 Z M119.218742,12.0528404 C119.218742,11.2367017 119.583026,10.7842202 120.286376,10.7842202 L121.43236,10.7842202 C122.136611,10.7842202 122.499994,11.2367017 122.499994,12.0528404 L122.499994,24.9287086 C122.499994,25.7756746 122.136611,26.1978513 121.43236,26.1978513 L120.286376,26.1978513 C119.583026,26.1978513 119.218742,25.7756746 119.218742,24.9287086 L119.218742,12.0528404 Z M115.951057,10.7842202 C116.848168,10.7842202 117.224844,11.3584433 116.935324,12.233624 L112.475315,25.1701017 C112.242396,25.8948036 111.807115,26.1978513 111.112367,26.1978513 L108.793703,26.1978513 C108.098955,26.1978513 107.634121,25.8948036 107.431757,25.1701017 L102.912141,12.233624 C102.622621,11.3584433 102.970746,10.7842202 103.867857,10.7842202 L105.229803,10.7842202 C105.925051,10.7842202 106.387883,11.1160051 106.59225,11.840707 L109.343691,20.3344015 C109.365229,20.399191 109.385766,20.467638 109.405301,20.53713 L109.935253,22.0962579 L110.346492,20.7795681 C110.387565,20.6238643 110.429641,20.472863 110.473219,20.3344015 L110.745208,19.495273 L110.759233,19.4513833 L110.760235,19.4524283 L113.226664,11.840707 C113.429027,11.1160051 113.893862,10.7842202 114.589111,10.7842202 L115.951057,10.7842202 Z M75.2133507,10.7842202 L76.5762866,10.7842202 C77.47339,10.7842202 77.8500632,11.3584433 77.5600449,12.233624 L73.1000737,25.1701017 C72.8666565,25.8948036 72.4313786,26.1978513 71.7366369,26.1978513 L69.4189946,26.1978513 C68.7232512,26.1978513 68.2594222,25.8948036 68.0560587,25.1701017 L63.5369819,12.233624 C63.2479654,11.3584433 63.5950858,10.7842202 64.49269,10.7842202 L65.8541233,10.7842202 C66.5493659,10.7842202 67.0126939,11.1160051 67.2165583,11.840707 L69.9694785,20.3344015 C69.9900152,20.399191 70.0110528,20.467638 70.0305877,20.53713 L70.5615367,22.0962579 L70.971269,20.7795681 C71.0123424,20.6238643 71.0549185,20.472863 71.0984964,20.3344015 L71.3845075,19.4524283 L73.8509157,11.840707 C74.0537782,11.1160051 74.518609,10.7842202 75.2133507,10.7842202 Z M50.6162455,13.9724025 C51.2686276,12.7024381 52.9272349,10.7842202 55.9776589,10.7842202 C59.3245737,10.7842202 61.2499715,12.5268481 61.2499715,16.5138625 L61.2499715,24.9574922 C61.2499715,25.7854191 60.8346796,26.1978513 60.005632,26.1978513 L58.7315922,26.1978513 C57.9327569,26.1978513 57.4877647,25.7854191 57.4877647,24.9574922 L57.4877647,17.2810476 C57.4877647,15.4506246 57.0130723,14.210776 55.1168627,14.210776 C52.4515182,14.210776 50.7632107,16.4250467 50.7632107,19.1415862 L50.7632107,24.9574922 C50.7632107,25.7854191 50.349455,26.1978513 49.5490835,26.1978513 L48.2458555,26.1978513 C47.4454841,26.1978513 47.0312163,25.7854191 47.0312163,24.9574922 L47.0312163,12.3793322 C47.0312163,11.5820314 47.4454841,11.139994 48.2458555,11.139994 L49.4010942,11.139994 C50.2004415,11.139994 50.6152213,11.5820314 50.6152213,12.3793322 L50.6162455,13.9724025 Z M27.9886841,4.86630354 C31.0547238,7.9619005 32.7233366,12.0486295 32.6871463,16.3729983 C32.6577116,19.9216565 31.6554823,23.0708674 29.6240018,26.0003096 C27.386478,29.2282507 23.904974,32.1963336 19.0033638,35.0552568 C18.8754915,35.1165988 18.7239749,35.1996761 18.5179316,35.3315372 C16.8517316,36.4009165 15.3544194,35.9319159 14.7526959,35.6590165 C14.6923788,35.627138 14.6282014,35.5957425 14.5707795,35.563864 C9.19869571,32.5479633 5.43490758,29.4200048 3.06420359,26.0003096 C1.03272308,23.0713504 0.0304938544,19.9221395 0.000576564149,16.3729983 C-0.0356137063,12.0486295 1.63299903,7.96238351 4.69952128,4.86630354 C7.80416395,1.73061693 11.9385404,0.00241503898 16.3407249,0 C20.7472523,0.00241503898 24.8835589,1.73061693 27.9886841,4.86630354 Z M16.3445852,32.2016467 C27.3985415,25.9679481 28.8567681,20.4534481 28.8910282,16.3416028 C28.9190154,13.0373464 27.640775,9.91180298 25.2927503,7.5402347 C22.9051575,5.1300258 19.7276517,3.80175436 16.3455503,3.79982233 C12.9610362,3.80175436 9.78304794,5.1300258 7.39497263,7.5402347 C5.04743042,9.91228598 3.76870753,13.0378294 3.79669467,16.3416028 C3.83095479,20.4568292 5.29111157,25.9756762 16.3445852,32.2016467 Z M21.3116198,19.9465241 C21.9282285,20.3620395 22.0445607,20.9448034 21.6314137,21.5446238 L21.0703381,22.3590718 C20.7644274,22.8011196 20.4120795,22.8949304 20.1703191,22.8949304 L20.1698404,22.8949304 C19.9371759,22.8949304 19.6949368,22.8105954 19.4507827,22.6457159 L14.6624904,19.3651816 C14.4255173,19.1126506 14.2756737,18.7881032 14.2412049,18.4446041 C14.2335452,18.4194932 14.2196619,18.3185755 14.2196619,18.2048655 L14.2187044,10.8445102 C14.2187044,10.1058688 14.6390324,9.68324653 15.3729309,9.68324653 L16.3682178,9.68324653 C17.1002013,9.68324653 17.521008,10.1058688 17.521008,10.8445102 L17.521008,17.3880485 L21.3116198,19.9465241 Z" id="path-1"></path>
    </defs>
    <g id="Home" stroke="none" stroke-width="1" fill="none" fill-rule="evenodd">
        <mask id="mask-2" fill="white">
            <use xlink:href="#path-1"></use>
        </mask>
        <use id="top-logo" fill="#083741" xlink:href="#path-1"></use>
    </g>
</svg>